<svg width="768" height="170" viewBox="0 0 768 170" fill="none" xmlns="http://www.w3.org/2000/svg">
<g clip-path="url(#clip0_435_37)">
<path d="M71.7606 95.7254C69.6074 93.3374 68.0339 91.1552 67.0815 89.1378C66.1291 87.1204 65.6322 84.5677 65.6322 81.4798C65.6322 78.3919 66.1291 75.8392 67.0815 73.8217C68.0339 71.8043 69.6074 69.581 71.7606 67.2342L126.378 10.3342C114.246 3.74667 100.332 0 85.5082 0C38.2613 0 0 38.0431 0 85.0206C0 131.998 38.2613 170.041 85.5082 170.041C100.953 170.041 115.405 165.965 127.91 158.842L71.802 95.7254H71.7606Z" fill="#6549E1"/>
<path d="M154.536 34.8728L108.407 81.4386L156.275 132.739C165.592 119.152 171.017 102.725 171.017 85.0205C171.017 66.2872 164.888 48.9537 154.536 34.8728Z" fill="#6549E1"/>
<path d="M235.075 68.9222V46.3599C235.075 43.4367 234.288 41.1722 232.756 39.6076C231.224 38.0843 228.864 37.302 225.799 37.302H216.11C213.004 37.302 210.685 38.0843 209.195 39.69C207.745 41.2134 207 43.4778 207 46.3599V122.076C207 124.875 207.745 127.057 209.195 128.581C210.685 130.145 213.004 130.969 216.11 130.969H225.799C229.071 130.969 231.389 130.186 232.88 128.581C234.329 127.057 235.075 124.875 235.075 122.076V68.9634V68.9222ZM265.51 83.209L300.293 48.1303C301.452 46.9775 302.073 45.5364 302.073 43.9307C302.073 42.6544 301.659 41.5016 300.831 40.5546C300.21 39.8547 299.092 39.0312 297.146 39.0312H280.169C278.222 39.0312 276.814 39.2371 275.821 39.69C274.827 40.1429 273.916 40.884 272.963 41.9545L241.907 74.3158C239.588 76.8685 238.18 79.0918 238.139 83.209C238.139 87.285 239.588 89.426 241.866 91.9375L273.999 128.046C274.992 129.198 275.945 129.939 276.939 130.31C277.85 130.681 279.05 130.845 280.748 130.845H298.305C300.21 130.845 301.411 129.981 302.073 129.24C302.943 128.293 303.399 127.099 303.399 125.781C303.399 124.752 303.109 123.228 301.659 121.829L265.551 83.1267L265.51 83.209Z" fill="#6549E1"/>
<path d="M356.691 36.3551C345.263 36.3551 335.118 38.5784 326.463 42.9839C317.726 47.4305 310.935 53.8122 306.215 61.9642C301.535 70.1163 299.134 79.5448 299.134 90.0849C299.134 103.754 302.943 114.5 310.397 122.158C317.892 129.816 328.037 133.686 340.584 133.686C348.741 133.686 355.822 132.575 361.619 130.351C366.05 128.663 369.983 126.193 373.379 122.981L373.917 125.616C374.249 127.387 374.994 128.704 376.112 129.61C377.188 130.516 378.721 130.969 380.625 130.969H390.688C393.255 130.969 395.118 130.434 396.402 129.281C397.686 128.087 398.348 126.234 398.348 123.764V48.3362L397.313 47.6363C386.257 40.143 372.592 36.314 356.691 36.314M371.516 94.2432C371.516 99.7192 369.404 103.96 365.014 107.295C360.46 110.753 355.325 112.441 349.362 112.441C341.66 112.441 335.904 110.589 332.302 106.965C328.699 103.301 326.836 97.3723 326.836 89.3438C326.836 79.3801 329.569 71.475 334.952 65.8756C340.376 60.235 347.416 57.5176 356.484 57.5176C360.087 57.5176 363.151 57.7647 365.594 58.2999C367.54 58.7116 369.528 59.3704 371.516 60.2762V94.2432Z" fill="#6549E1"/>
<path d="M535.741 43.7661C535.741 41.5016 534.374 39.0724 530.482 39.0724H516.403C514.126 39.0724 512.594 39.5253 511.641 40.4723C510.854 41.2546 510.275 42.3662 509.778 44.0131L495.658 92.8021L480.254 51.6711C479.633 49.9419 478.929 48.7479 478.059 48.0068C477.065 47.1422 475.616 46.6893 473.67 46.6893H465.802C463.856 46.6893 462.365 47.1422 461.33 48.0891C460.46 48.8714 459.715 50.0242 459.053 51.6299L443.483 92.8021L429.57 44.0954C429.197 42.3662 428.493 41.0899 427.458 40.2664C426.423 39.443 424.891 39.0312 422.903 39.0312H408.824C404.932 39.0312 403.565 41.4604 403.565 43.7249C403.565 44.5895 403.648 45.3306 403.855 45.8658L428.7 125.493C429.363 127.428 430.232 128.787 431.35 129.61C432.51 130.475 434.042 130.886 436.03 130.886H446.464C448.369 130.886 449.86 130.434 450.978 129.528C451.972 128.745 452.8 127.469 453.628 125.534L469.695 82.5503L485.802 125.616C486.548 127.428 487.334 128.663 488.245 129.445C489.322 130.392 490.771 130.845 492.759 130.845H503.359C505.347 130.845 506.838 130.475 507.914 129.692C509.032 128.869 509.861 127.51 510.523 125.411L535.534 45.8658C535.741 45.2483 535.824 44.5483 535.824 43.6837" fill="#6549E1"/>
<path d="M590.234 36.3551C578.806 36.3551 568.661 38.5784 560.006 42.9839C551.269 47.4305 544.478 53.8122 539.758 61.9642C535.078 70.1163 532.677 79.5448 532.677 90.0849C532.677 103.754 536.486 114.5 543.94 122.158C551.435 129.816 561.58 133.686 574.126 133.686C582.284 133.686 589.365 132.575 595.162 130.351C599.593 128.663 603.526 126.193 606.922 122.981L607.46 125.616C607.791 127.387 608.537 128.704 609.655 129.61C610.731 130.516 612.264 130.969 614.168 130.969H624.231C626.798 130.969 628.661 130.434 629.945 129.281C631.229 128.087 631.891 126.234 631.891 123.764V48.3362L630.856 47.6363C619.8 40.143 606.135 36.314 590.234 36.314M605.058 94.2432C605.058 99.7192 602.947 103.96 598.557 107.295C594.002 110.753 588.868 112.441 582.905 112.441C575.203 112.441 569.447 110.589 565.845 106.965C562.242 103.301 560.379 97.3723 560.379 89.3438C560.379 79.3801 563.112 71.475 568.495 65.8756C573.919 60.235 580.959 57.5176 590.027 57.5176C593.63 57.5176 596.694 57.7647 599.137 58.2999C601.083 58.7116 603.071 59.3704 605.058 60.2762V94.2432Z" fill="#6549E1"/>
<path d="M669.862 68.9222V46.3599C669.862 43.4367 669.075 41.1722 667.543 39.6076C666.011 38.0843 663.651 37.302 660.586 37.302H650.897C647.791 37.302 645.472 38.0843 643.982 39.69C642.532 41.2134 641.787 43.4778 641.787 46.3599V122.076C641.787 124.875 642.532 127.057 643.982 128.581C645.472 130.145 647.791 130.969 650.897 130.969H660.586C663.858 130.969 666.177 130.186 667.667 128.581C669.117 127.057 669.862 124.875 669.862 122.076V68.9634V68.9222ZM700.297 83.209L735.08 48.1303C736.239 46.9775 736.861 45.5364 736.861 43.9307C736.861 42.6544 736.446 41.5016 735.618 40.5546C734.997 39.8547 733.879 39.0312 731.933 39.0312H714.956C713.009 39.0312 711.602 39.2371 710.608 39.69C709.614 40.1429 708.703 40.884 707.751 41.9545L676.694 74.3158C674.375 76.8685 672.968 79.0918 672.926 83.209C672.926 87.285 674.375 89.426 676.653 91.9375L708.786 128.046C709.78 129.198 710.732 129.939 711.726 130.31C712.637 130.681 713.838 130.845 715.535 130.845H733.092C734.997 130.845 736.198 129.981 736.861 129.24C737.73 128.293 738.186 127.099 738.186 125.781C738.186 124.752 737.896 123.228 736.447 121.829L700.338 83.1267L700.297 83.209Z" fill="#6549E1"/>
<path d="M756.861 60.1937C750.691 60.1937 745.681 55.2118 745.681 49.0772C745.681 42.9425 750.691 37.9607 756.861 37.9607C763.031 37.9607 768.041 42.9425 768.041 49.0772C768.041 55.2118 763.031 60.1937 756.861 60.1937ZM756.861 40.2252C751.933 40.2252 747.917 44.2189 747.917 49.1184C747.917 54.0178 751.933 58.0116 756.861 58.0116C761.788 58.0116 765.764 54.0178 765.764 49.1184C765.764 44.2189 761.747 40.2252 756.861 40.2252Z" fill="#6549E1"/>
<path d="M753.673 54.018V44.0955H757.565C758.269 44.0955 758.89 44.219 759.429 44.5072C759.926 44.7542 760.34 45.1248 760.588 45.5777C760.836 46.0306 761.002 46.5246 761.002 47.101C761.002 47.7186 760.837 48.295 760.505 48.7891C760.174 49.2832 759.677 49.6537 759.015 49.8596L761.292 54.018H759.263L757.151 50.0654H755.578V54.018H753.756H753.673ZM757.524 45.66H755.495V48.5832H757.524C758.021 48.5832 758.435 48.4185 758.683 48.1303C758.973 47.8421 759.097 47.5127 759.097 47.101C759.097 46.6893 758.973 46.3599 758.683 46.0717C758.393 45.7835 758.021 45.66 757.524 45.66Z" fill="#6549E1"/>
</g>
<defs>
<clipPath id="clip0_435_37">
<rect width="768" height="170" fill="white"/>
</clipPath>
</defs>
</svg>
